<svg xmlns="http://www.w3.org/2000/svg" width="42.667" height="42.667" version="1.0" viewBox="0 0 32 32">
  <style>
    path {
      fill: var(--icon-color, #222222);
      stroke: var(--icon-color, #222222);
    }
    @media (prefers-color-scheme: dark) {
      path {
        fill: var(--icon-color-dark, #e0acff);
        stroke: var(--icon-color-dark, #e0acff);
      }
    }
  </style>
  <path d="M7.1 8.9c-1.3.3-2.8 1.3-3.4 2.1-1.1 1.9.5 8.2 3.3 12.7 1.8 3.1 2.3 3.3 7.4 3.3 4.6 0 5.8-.4 7.4-2.5 1.1-1.4 2.7-2.5 3.5-2.5 2.2 0 3.9-2.6 3.5-5.2-.4-3.2-4.2-3.2-4.4 0-.1 1.8-.1 1.9.3.2.7-3.2 3.5-2.5 3.1.7-.2 2.1-.8 2.8-2.3 2.6-1.3-.1-2.6.9-3.7 2.8-1.6 2.7-2.2 2.9-7.2 2.9-5.5 0-5.6-.1-7.6-4-1.1-2.2-2.2-5.7-2.3-7.8-.2-3.7-.2-3.7 4.5-4.6 8-1.6 19.5 1.9 12.6 3.8-3.6.9-12.6.7-13.3-.4-.6-.9 1.4-1.6 7-2.3 2.7-.4 2.6-.4-.7-.6-2 0-4.9.4-6.5 1-2.7 1-2.7 1.1-.9 2.5 2.3 1.6 11.2 1.9 15 .4 8.4-3.1-5.6-7.8-15.3-5.1z"/>
  <path d="m15 12-3.5.7 4.3.2c2.3 0 4.2-.4 4.2-.9 0-.6-.3-.9-.7-.9-.5.1-2.4.5-4.3.9z"/>
</svg>

